<mxfile host="app.diagrams.net" modified="2022-04-22T10:06:53.849Z" agent="5.0 (Windows NT 10.0; Win64; x64) AppleWebKit/537.36 (KHTML, like Gecko) Chrome/100.0.4896.127 Safari/537.36" etag="BdNx1mQAAbQdOiloe4MG" version="17.4.5" type="github">
  <diagram id="0nQF2doMmd6Lq2jV-xo2" name="Page-1">
    <mxGraphModel dx="1422" dy="1923" grid="0" gridSize="10" guides="1" tooltips="1" connect="1" arrows="1" fold="1" page="1" pageScale="1" pageWidth="827" pageHeight="1169" background="#ffffff" math="0" shadow="1">
      <root>
        <mxCell id="0" />
        <mxCell id="1" parent="0" />
        <mxCell id="cIi_XP3WYMKJ5PLT9F9F-77" style="edgeStyle=orthogonalEdgeStyle;rounded=0;orthogonalLoop=1;jettySize=auto;html=1;exitX=0.5;exitY=0;exitDx=0;exitDy=0;entryX=0.55;entryY=0.95;entryDx=0;entryDy=0;entryPerimeter=0;" parent="1" source="cIi_XP3WYMKJ5PLT9F9F-1" target="cIi_XP3WYMKJ5PLT9F9F-74" edge="1">
          <mxGeometry relative="1" as="geometry" />
        </mxCell>
        <mxCell id="cIi_XP3WYMKJ5PLT9F9F-1" value="奇门" style="rounded=0;whiteSpace=wrap;html=1;fillColor=#d5e8d4;strokeColor=#82b366;" parent="1" vertex="1">
          <mxGeometry x="344" y="-840" width="120" height="50" as="geometry" />
        </mxCell>
        <mxCell id="cIi_XP3WYMKJ5PLT9F9F-61" style="edgeStyle=orthogonalEdgeStyle;rounded=0;orthogonalLoop=1;jettySize=auto;html=1;exitX=0.5;exitY=0;exitDx=0;exitDy=0;entryX=0.5;entryY=1;entryDx=0;entryDy=0;" parent="1" source="cIi_XP3WYMKJ5PLT9F9F-2" target="cIi_XP3WYMKJ5PLT9F9F-1" edge="1">
          <mxGeometry relative="1" as="geometry">
            <Array as="points">
              <mxPoint x="100" y="-710" />
              <mxPoint x="404" y="-710" />
            </Array>
          </mxGeometry>
        </mxCell>
        <mxCell id="cIi_XP3WYMKJ5PLT9F9F-2" value="NLP" style="rounded=0;whiteSpace=wrap;html=1;flipH=1;flipV=1;" parent="1" vertex="1">
          <mxGeometry x="40" y="-660" width="120" height="50" as="geometry" />
        </mxCell>
        <mxCell id="cIi_XP3WYMKJ5PLT9F9F-63" style="edgeStyle=orthogonalEdgeStyle;rounded=0;orthogonalLoop=1;jettySize=auto;html=1;exitX=0.5;exitY=0;exitDx=0;exitDy=0;entryX=0.5;entryY=1;entryDx=0;entryDy=0;" parent="1" source="cIi_XP3WYMKJ5PLT9F9F-3" target="cIi_XP3WYMKJ5PLT9F9F-1" edge="1">
          <mxGeometry relative="1" as="geometry">
            <Array as="points">
              <mxPoint x="250" y="-710" />
              <mxPoint x="404" y="-710" />
            </Array>
          </mxGeometry>
        </mxCell>
        <mxCell id="cIi_XP3WYMKJ5PLT9F9F-3" value="TMS" style="rounded=0;whiteSpace=wrap;html=1;flipH=1;flipV=1;" parent="1" vertex="1">
          <mxGeometry x="190" y="-660" width="120" height="50" as="geometry" />
        </mxCell>
        <mxCell id="cIi_XP3WYMKJ5PLT9F9F-64" style="edgeStyle=orthogonalEdgeStyle;rounded=0;orthogonalLoop=1;jettySize=auto;html=1;exitX=0.5;exitY=0;exitDx=0;exitDy=0;entryX=0.5;entryY=1;entryDx=0;entryDy=0;" parent="1" source="cIi_XP3WYMKJ5PLT9F9F-4" target="cIi_XP3WYMKJ5PLT9F9F-1" edge="1">
          <mxGeometry relative="1" as="geometry" />
        </mxCell>
        <mxCell id="cIi_XP3WYMKJ5PLT9F9F-4" value="OMS" style="rounded=0;whiteSpace=wrap;html=1;flipH=1;flipV=1;" parent="1" vertex="1">
          <mxGeometry x="344" y="-660" width="120" height="50" as="geometry" />
        </mxCell>
        <mxCell id="cIi_XP3WYMKJ5PLT9F9F-66" style="edgeStyle=orthogonalEdgeStyle;rounded=0;orthogonalLoop=1;jettySize=auto;html=1;exitX=0.5;exitY=0;exitDx=0;exitDy=0;entryX=0.5;entryY=1;entryDx=0;entryDy=0;" parent="1" source="cIi_XP3WYMKJ5PLT9F9F-5" target="cIi_XP3WYMKJ5PLT9F9F-1" edge="1">
          <mxGeometry relative="1" as="geometry">
            <Array as="points">
              <mxPoint x="570" y="-710" />
              <mxPoint x="404" y="-710" />
            </Array>
          </mxGeometry>
        </mxCell>
        <mxCell id="cIi_XP3WYMKJ5PLT9F9F-5" value="统一取数平台" style="rounded=0;whiteSpace=wrap;html=1;flipH=1;flipV=1;" parent="1" vertex="1">
          <mxGeometry x="510" y="-660" width="120" height="50" as="geometry" />
        </mxCell>
        <mxCell id="cIi_XP3WYMKJ5PLT9F9F-22" value="HTTP /JSON" style="text;html=1;strokeColor=none;fillColor=none;align=center;verticalAlign=middle;whiteSpace=wrap;rounded=0;" parent="1" vertex="1">
          <mxGeometry x="414" y="-740" width="100" height="20" as="geometry" />
        </mxCell>
        <mxCell id="cIi_XP3WYMKJ5PLT9F9F-73" style="edgeStyle=orthogonalEdgeStyle;rounded=0;orthogonalLoop=1;jettySize=auto;html=1;exitX=1;exitY=0.5;exitDx=0;exitDy=0;entryX=0;entryY=0.5;entryDx=0;entryDy=0;" parent="1" source="cIi_XP3WYMKJ5PLT9F9F-23" target="cIi_XP3WYMKJ5PLT9F9F-1" edge="1">
          <mxGeometry relative="1" as="geometry" />
        </mxCell>
        <mxCell id="cIi_XP3WYMKJ5PLT9F9F-23" value="奇门后台管理" style="rounded=0;whiteSpace=wrap;html=1;fillColor=#d5e8d4;strokeColor=#82b366;" parent="1" vertex="1">
          <mxGeometry x="170" y="-840" width="120" height="50" as="geometry" />
        </mxCell>
        <mxCell id="cIi_XP3WYMKJ5PLT9F9F-72" style="edgeStyle=orthogonalEdgeStyle;rounded=0;orthogonalLoop=1;jettySize=auto;html=1;exitX=0.5;exitY=0.5;exitDx=0;exitDy=0;exitPerimeter=0;entryX=0;entryY=0.5;entryDx=0;entryDy=0;" parent="1" source="cIi_XP3WYMKJ5PLT9F9F-25" target="cIi_XP3WYMKJ5PLT9F9F-23" edge="1">
          <mxGeometry relative="1" as="geometry" />
        </mxCell>
        <mxCell id="cIi_XP3WYMKJ5PLT9F9F-25" value="B端用户" style="shape=umlActor;verticalLabelPosition=bottom;verticalAlign=top;html=1;outlineConnect=0;" parent="1" vertex="1">
          <mxGeometry x="85.5" y="-845" width="29" height="60" as="geometry" />
        </mxCell>
        <mxCell id="cIi_XP3WYMKJ5PLT9F9F-30" value="" style="rounded=0;whiteSpace=wrap;html=1;" parent="1" vertex="1">
          <mxGeometry x="499" y="-563" width="290" height="130" as="geometry" />
        </mxCell>
        <mxCell id="cIi_XP3WYMKJ5PLT9F9F-67" style="edgeStyle=orthogonalEdgeStyle;rounded=0;orthogonalLoop=1;jettySize=auto;html=1;exitX=0.5;exitY=0;exitDx=0;exitDy=0;entryX=0.5;entryY=1;entryDx=0;entryDy=0;" parent="1" source="cIi_XP3WYMKJ5PLT9F9F-31" target="cIi_XP3WYMKJ5PLT9F9F-1" edge="1">
          <mxGeometry relative="1" as="geometry">
            <Array as="points">
              <mxPoint x="740" y="-710" />
              <mxPoint x="404" y="-710" />
            </Array>
          </mxGeometry>
        </mxCell>
        <mxCell id="cIi_XP3WYMKJ5PLT9F9F-31" value="其它" style="rounded=0;whiteSpace=wrap;html=1;flipH=1;flipV=1;" parent="1" vertex="1">
          <mxGeometry x="680" y="-660" width="120" height="50" as="geometry" />
        </mxCell>
        <mxCell id="cIi_XP3WYMKJ5PLT9F9F-41" value="" style="rounded=0;whiteSpace=wrap;html=1;flipH=1;flipV=1;" parent="1" vertex="1">
          <mxGeometry x="509" y="-553" width="70" height="30" as="geometry" />
        </mxCell>
        <mxCell id="cIi_XP3WYMKJ5PLT9F9F-42" value="" style="rounded=0;whiteSpace=wrap;html=1;flipH=1;flipV=1;fillColor=#d5e8d4;strokeColor=#82b366;" parent="1" vertex="1">
          <mxGeometry x="509" y="-513" width="70" height="30" as="geometry" />
        </mxCell>
        <mxCell id="cIi_XP3WYMKJ5PLT9F9F-44" value="Actor" style="shape=umlActor;verticalLabelPosition=bottom;verticalAlign=top;html=1;outlineConnect=0;" parent="1" vertex="1">
          <mxGeometry x="689" y="-548" width="20" height="45" as="geometry" />
        </mxCell>
        <mxCell id="cIi_XP3WYMKJ5PLT9F9F-46" value="" style="endArrow=classic;html=1;" parent="1" edge="1">
          <mxGeometry width="50" height="50" relative="1" as="geometry">
            <mxPoint x="519" y="-453" as="sourcePoint" />
            <mxPoint x="569" y="-453" as="targetPoint" />
          </mxGeometry>
        </mxCell>
        <mxCell id="cIi_XP3WYMKJ5PLT9F9F-47" value="外部系统" style="text;html=1;strokeColor=none;fillColor=none;align=center;verticalAlign=middle;whiteSpace=wrap;rounded=0;" parent="1" vertex="1">
          <mxGeometry x="599" y="-548" width="50" height="20" as="geometry" />
        </mxCell>
        <mxCell id="cIi_XP3WYMKJ5PLT9F9F-48" value="内部系统" style="text;html=1;strokeColor=none;fillColor=none;align=center;verticalAlign=middle;whiteSpace=wrap;rounded=0;" parent="1" vertex="1">
          <mxGeometry x="599" y="-508" width="50" height="20" as="geometry" />
        </mxCell>
        <mxCell id="cIi_XP3WYMKJ5PLT9F9F-49" value="同步依赖" style="text;html=1;strokeColor=none;fillColor=none;align=center;verticalAlign=middle;whiteSpace=wrap;rounded=0;" parent="1" vertex="1">
          <mxGeometry x="599" y="-468.5" width="50" height="20" as="geometry" />
        </mxCell>
        <mxCell id="cIi_XP3WYMKJ5PLT9F9F-50" value="用户" style="text;html=1;strokeColor=none;fillColor=none;align=center;verticalAlign=middle;whiteSpace=wrap;rounded=0;" parent="1" vertex="1">
          <mxGeometry x="719" y="-528" width="40" height="20" as="geometry" />
        </mxCell>
        <mxCell id="cIi_XP3WYMKJ5PLT9F9F-74" value="互联网API" style="ellipse;shape=cloud;whiteSpace=wrap;html=1;" parent="1" vertex="1">
          <mxGeometry x="338" y="-972" width="120" height="80" as="geometry" />
        </mxCell>
        <mxCell id="cIi_XP3WYMKJ5PLT9F9F-78" value="" style="ellipse;shape=cloud;whiteSpace=wrap;html=1;" parent="1" vertex="1">
          <mxGeometry x="666" y="-477" width="70" height="35" as="geometry" />
        </mxCell>
        <mxCell id="cIi_XP3WYMKJ5PLT9F9F-79" value="互联网" style="text;html=1;strokeColor=none;fillColor=none;align=center;verticalAlign=middle;whiteSpace=wrap;rounded=0;" parent="1" vertex="1">
          <mxGeometry x="739" y="-468.5" width="40" height="20" as="geometry" />
        </mxCell>
        <mxCell id="cIi_XP3WYMKJ5PLT9F9F-80" value="" style="endArrow=none;dashed=1;html=1;dashPattern=1 3;strokeWidth=2;" parent="1" edge="1">
          <mxGeometry width="50" height="50" relative="1" as="geometry">
            <mxPoint x="20" y="-870" as="sourcePoint" />
            <mxPoint x="810" y="-870" as="targetPoint" />
          </mxGeometry>
        </mxCell>
      </root>
    </mxGraphModel>
  </diagram>
</mxfile>
